<svg width="24" height="24" viewBox="0 0 24 24" fill="none" xmlns="http://www.w3.org/2000/svg">
<path d="M13 8C13 5.79 11.21 4 9 4C6.79 4 5 5.79 5 8C5 10.21 6.79 12 9 12C11.21 12 13 10.21 13 8ZM11 8C11 9.1 10.1 10 9 10C7.9 10 7 9.1 7 8C7 6.9 7.9 6 9 6C10.1 6 11 6.9 11 8ZM1 18V20H17V18C17 15.34 11.67 14 9 14C6.33 14 1 15.34 1 18ZM3 18C3.2 17.29 6.3 16 9 16C11.69 16 14.78 17.28 15 18H3Z" fill="white"/>
<path d="M22.5796 10.49C22.5996 10.33 22.6146 10.17 22.6146 10C22.6146 9.83001 22.5996 9.67001 22.5796 9.51001L23.6346 8.68501C23.7296 8.61001 23.7546 8.47501 23.6946 8.36502L22.6946 6.63502C22.6652 6.58343 22.6183 6.54403 22.5624 6.52387C22.5065 6.50372 22.4453 6.50412 22.3896 6.52502L21.1446 7.02502C20.8846 6.82502 20.6047 6.66002 20.2997 6.53502L20.1097 5.21002C20.1014 5.15119 20.0719 5.0974 20.0268 5.05874C19.9817 5.02008 19.9241 4.9992 19.8647 5.00002H17.8647C17.7397 5.00002 17.6347 5.09002 17.6197 5.21002L17.4297 6.53502C17.1247 6.66002 16.8447 6.83002 16.5847 7.02502L15.3397 6.52502C15.3107 6.51518 15.2803 6.51012 15.2497 6.51002C15.1647 6.51002 15.0797 6.55502 15.0347 6.63502L14.0347 8.36502C13.9697 8.47501 13.9997 8.61001 14.0947 8.68501L15.1497 9.51001C15.1297 9.67001 15.1147 9.83501 15.1147 10C15.1147 10.165 15.1297 10.33 15.1497 10.49L14.0947 11.315C13.9997 11.39 13.9747 11.525 14.0347 11.635L15.0347 13.365C15.0641 13.4166 15.111 13.456 15.1669 13.4762C15.2228 13.4963 15.284 13.4959 15.3397 13.475L16.5847 12.975C16.8447 13.175 17.1247 13.34 17.4297 13.465L17.6197 14.79C17.6347 14.91 17.7397 15 17.8647 15H19.8647C19.9897 15 20.0947 14.91 20.1097 14.79L20.2997 13.465C20.6047 13.34 20.8846 13.17 21.1446 12.975L22.3896 13.475C22.4196 13.485 22.4496 13.49 22.4796 13.49C22.5646 13.49 22.6496 13.445 22.6946 13.365L23.6946 11.635C23.7546 11.525 23.7296 11.39 23.6346 11.315L22.5796 10.49ZM21.5896 9.63501C21.6096 9.79001 21.6146 9.89501 21.6146 10C21.6146 10.105 21.6046 10.215 21.5896 10.365L21.5196 10.93L21.9646 11.28L22.5046 11.7L22.1546 12.305L21.5196 12.05L20.9996 11.84L20.5496 12.18C20.3347 12.34 20.1297 12.46 19.9247 12.545L19.3947 12.76L19.3147 13.325L19.2147 14H18.5147L18.4197 13.325L18.3397 12.76L17.8097 12.545C17.5947 12.455 17.3947 12.34 17.1947 12.19L16.7397 11.84L16.2097 12.055L15.5747 12.31L15.2247 11.705L15.7647 11.285L16.2097 10.935L16.1397 10.37C16.1247 10.215 16.1147 10.1 16.1147 10C16.1147 9.90001 16.1247 9.78501 16.1397 9.63501L16.2097 9.07001L15.7647 8.72001L15.2247 8.30002L15.5747 7.69502L16.2097 7.95002L16.7297 8.16002L17.1797 7.82002C17.3947 7.66002 17.5997 7.54002 17.8047 7.45502L18.3347 7.24002L18.4147 6.67502L18.5147 6.00002H19.2097L19.3047 6.67502L19.3847 7.24002L19.9147 7.45502C20.1297 7.54502 20.3297 7.66002 20.5297 7.81002L20.9846 8.16002L21.5146 7.94502L22.1496 7.69002L22.4996 8.29502L21.9646 8.72001L21.5196 9.07001L21.5896 9.63501ZM18.8647 8.00002C17.7597 8.00002 16.8647 8.89501 16.8647 10C16.8647 11.105 17.7597 12 18.8647 12C19.9697 12 20.8646 11.105 20.8646 10C20.8646 8.89501 19.9697 8.00002 18.8647 8.00002ZM18.8647 11C18.3147 11 17.8647 10.55 17.8647 10C17.8647 9.45001 18.3147 9.00001 18.8647 9.00001C19.4147 9.00001 19.8647 9.45001 19.8647 10C19.8647 10.55 19.4147 11 18.8647 11Z" fill="white"/>
</svg>
