<svg width="18" height="18" viewBox="0 0 18 18" fill="none" xmlns="http://www.w3.org/2000/svg">
<path d="M8.1665 4.83333H9.83317V6.5H8.1665V4.83333ZM8.1665 8.16666H9.83317V13.1667H8.1665V8.16666ZM8.99984 0.666664C4.39984 0.666664 0.666504 4.4 0.666504 9C0.666504 13.6 4.39984 17.3333 8.99984 17.3333C13.5998 17.3333 17.3332 13.6 17.3332 9C17.3332 4.4 13.5998 0.666664 8.99984 0.666664ZM8.99984 15.6667C5.32484 15.6667 2.33317 12.675 2.33317 9C2.33317 5.325 5.32484 2.33333 8.99984 2.33333C12.6748 2.33333 15.6665 5.325 15.6665 9C15.6665 12.675 12.6748 15.6667 8.99984 15.6667Z" fill="white"/>
</svg>
